<svg width="67" height="32" viewBox="0 0 67 32" fill="none" xmlns="http://www.w3.org/2000/svg">
<path d="M15.5344 30.4395C23.2611 30.4395 29.5248 23.9747 29.5248 16C29.5248 8.02527 23.2611 1.56049 15.5344 1.56049C7.80776 1.56049 1.54407 8.02527 1.54407 16C1.54407 23.9747 7.80776 30.4395 15.5344 30.4395Z" fill="#6B2728" stroke="#EBEBEB" stroke-width="2"/>
<path d="M8.92784 25.0667C8.81852 25.0667 8.76385 24.9539 8.76385 24.7283C8.76385 24.5026 8.81852 24.3898 8.92784 24.3898H9.30265C10.021 24.3898 10.5286 24.2769 10.8253 24.0513C11.1377 23.8256 11.2938 23.4307 11.2938 22.8666V9.71386C11.2938 9.14971 11.1299 8.75481 10.8019 8.52915C10.4895 8.30349 9.9898 8.19066 9.30265 8.19066H8.92784C8.81852 8.19066 8.76385 8.07783 8.76385 7.85217V7.73128C8.77947 7.63457 8.81852 7.57815 8.88098 7.56204C8.95907 7.5298 9.06839 7.51368 9.20894 7.51368L13.0273 7.4895C14.5422 7.4895 15.651 7.49756 16.3538 7.51368C17.978 7.54592 19.321 7.93276 20.383 8.67421C21.445 9.41567 21.976 10.407 21.976 11.6481C21.976 12.6152 21.6246 13.4131 20.9218 14.0417C20.219 14.6703 19.3132 15.1539 18.2044 15.4923C18.017 15.5407 17.9233 15.6052 17.9233 15.6858C17.9233 15.7502 18.017 15.8067 18.2044 15.855C19.5631 16.2096 20.6875 16.7496 21.5777 17.4749C22.4835 18.2003 22.9364 19.119 22.9364 20.2312C22.9364 21.2305 22.6475 22.1009 22.0697 22.8424C21.5074 23.5677 20.75 24.1238 19.7974 24.5107C18.8447 24.8814 17.7906 25.0667 16.6349 25.0667H8.92784ZM13.1913 14.8395C13.1913 15.0007 13.2304 15.1297 13.3084 15.2264C13.4021 15.307 13.5271 15.3473 13.6833 15.3473H13.8004C16.0649 15.3473 17.6266 15.0088 18.4855 14.3318C19.3601 13.6548 19.7974 12.728 19.7974 11.5514C19.7974 10.552 19.3835 9.74609 18.5558 9.13359C17.7437 8.50497 16.5802 8.19066 15.0654 8.19066C14.3938 8.19066 13.9097 8.31155 13.613 8.55332C13.3319 8.77898 13.1913 9.16583 13.1913 9.71386V14.8395ZM15.2528 24.3898C16.8301 24.3898 18.1341 24.0432 19.1649 23.3501C20.2112 22.6409 20.7344 21.5932 20.7344 20.207C20.7344 17.4346 18.4231 16.0484 13.8004 16.0484H13.6833C13.5271 16.0484 13.4021 16.0968 13.3084 16.1935C13.2304 16.2741 13.1913 16.395 13.1913 16.5562V22.8666C13.1913 23.4468 13.3475 23.8498 13.6598 24.0755C13.9722 24.285 14.4797 24.3898 15.1825 24.3898H15.2528Z" fill="#EBEBEB"/>
<path d="M33.743 14.3209V13.9501L34.4163 13.8946V8.54438L33.743 8.48897V8.11382H34.4163H36.1511C36.7762 8.11382 37.2635 8.25022 37.6133 8.52309C37.963 8.79308 38.1378 9.20094 38.1378 9.74662C38.1378 10.0706 38.0484 10.3519 37.8694 10.5907C37.6931 10.8266 37.4495 10.9857 37.1383 11.0681C37.3861 11.1108 37.6037 11.2046 37.7909 11.3495C37.9809 11.4945 38.1282 11.6749 38.2328 11.8909C38.3403 12.1041 38.394 12.3371 38.394 12.5901C38.394 13.1472 38.2191 13.5749 37.8694 13.8733C37.5224 14.1717 37.0584 14.3209 36.4774 14.3209H33.743ZM34.9119 13.8946H36.4774C36.9207 13.8946 37.2677 13.781 37.5183 13.5535C37.7716 13.3262 37.8983 13.0079 37.8983 12.5986C37.8983 12.3514 37.8474 12.1325 37.7455 11.9421C37.6436 11.7488 37.4921 11.5982 37.2911 11.4902C37.0901 11.3822 36.845 11.3282 36.5559 11.3282H34.9119V13.8946ZM34.9119 10.8976H36.2957C36.7252 10.8976 37.0556 10.7982 37.287 10.5992C37.521 10.4003 37.6381 10.1104 37.6381 9.72956C37.6381 9.33453 37.5114 9.03895 37.2581 8.84284C37.0075 8.64385 36.6385 8.54438 36.1511 8.54438H34.9119V10.8976ZM39.0383 14.3209V13.9501L39.7116 13.8946V8.54438L39.0383 8.48897V8.11382H43.3589V9.47375H42.9375L42.8962 8.53585H40.2072V10.8849H42.6319V11.3112H40.2072V13.9074H43.0242L43.0656 12.961H43.4827V14.3209H39.0383ZM46.5104 14.4104C46.1662 14.4104 45.822 14.3565 45.4778 14.2485C45.1363 14.1405 44.8059 13.9728 44.4865 13.7454V12.5432H44.8995L44.9615 13.5109C45.2038 13.6673 45.4558 13.7838 45.7174 13.8605C45.9789 13.9372 46.2433 13.9756 46.5104 13.9756C46.8271 13.9756 47.1025 13.9259 47.3365 13.8264C47.5733 13.7241 47.7564 13.5834 47.8859 13.4044C48.018 13.2224 48.0841 13.0136 48.0841 12.7776C48.0841 12.5503 48.0305 12.3514 47.923 12.1809C47.8184 12.0074 47.6463 11.8554 47.4067 11.7247C47.1699 11.5939 46.8477 11.4746 46.4402 11.3666C46.0024 11.2501 45.6444 11.1136 45.3662 10.9573C45.0909 10.801 44.8871 10.6135 44.755 10.3946C44.6255 10.1729 44.5608 9.91002 44.5608 9.60592C44.5608 9.29611 44.6407 9.0233 44.8004 8.78737C44.9601 8.54868 45.1831 8.36251 45.4695 8.22893C45.7587 8.09253 46.0946 8.02429 46.4773 8.02429C46.8821 8.02429 47.2429 8.08682 47.5595 8.21187C47.879 8.33692 48.1488 8.4975 48.3692 8.69361V9.80203H47.9602L47.8982 8.92384C47.7248 8.77884 47.5196 8.6652 47.2828 8.5828C47.046 8.50033 46.7775 8.45916 46.4773 8.45916C46.1827 8.45916 45.9294 8.51026 45.7174 8.61262C45.5053 8.71208 45.3414 8.84708 45.2258 9.0176C45.1129 9.18812 45.0565 9.3814 45.0565 9.59739C45.0565 9.80485 45.1019 9.9882 45.1928 10.1473C45.2837 10.3037 45.4406 10.4429 45.6637 10.5651C45.8867 10.6845 46.1992 10.7996 46.6013 10.9104C47.2539 11.0838 47.7468 11.3182 48.08 11.6138C48.4132 11.9066 48.5798 12.2917 48.5798 12.7692C48.5798 13.0988 48.4917 13.3873 48.3155 13.6345C48.142 13.879 47.8997 14.0694 47.5885 14.2058C47.2773 14.3422 46.9179 14.4104 46.5104 14.4104ZM50.8102 14.3209V13.9501L51.4835 13.8946V8.53162H49.7942L49.7405 9.47805H49.3357V8.11382H54.123V9.47805H53.7223L53.6645 8.53162H51.9792V13.8946L52.6525 13.9501V14.3209H50.8102ZM33.743 25.7382V25.3673L34.4163 25.3119V19.9617L33.743 19.9063V19.5311H34.4163H36.1511C36.7762 19.5311 37.2635 19.6675 37.6133 19.9404C37.963 20.2104 38.1378 20.6182 38.1378 21.1639C38.1378 21.4879 38.0484 21.7692 37.8694 22.008C37.6931 22.2438 37.4495 22.403 37.1383 22.4854C37.3861 22.5281 37.6037 22.6219 37.7909 22.7668C37.9809 22.9118 38.1282 23.0922 38.2328 23.3082C38.3403 23.5214 38.394 23.7544 38.394 24.0074C38.394 24.5644 38.2191 24.9922 37.8694 25.2906C37.5224 25.589 37.0584 25.7382 36.4774 25.7382H33.743ZM34.9119 25.3119H36.4774C36.9207 25.3119 37.2677 25.1982 37.5183 24.9708C37.7716 24.7435 37.8983 24.4252 37.8983 24.0159C37.8983 23.7687 37.8474 23.5498 37.7455 23.3594C37.6436 23.1661 37.4921 23.0155 37.2911 22.9075C37.0901 22.7995 36.845 22.7455 36.5559 22.7455H34.9119V25.3119ZM34.9119 22.3149H36.2957C36.7252 22.3149 37.0556 22.2154 37.287 22.0165C37.521 21.8176 37.6381 21.5276 37.6381 21.1468C37.6381 20.7518 37.5114 20.4562 37.2581 20.2601C37.0075 20.0611 36.6385 19.9617 36.1511 19.9617H34.9119V22.3149ZM38.9805 25.7382V25.3673L39.4224 25.3375L41.5579 19.5311H42.0288L44.1478 25.3375L44.5897 25.3673V25.7382H43.1069V25.3673L43.6356 25.3289L43.1358 23.9264H40.4386L39.9347 25.3289L40.4634 25.3673V25.7382H38.9805ZM40.5996 23.4787H42.9747L41.8884 20.4306L41.8057 20.1791H41.781L41.6943 20.4306L40.5996 23.4787ZM45.2341 25.7424V25.3673L45.9074 25.3119V19.9617L45.2341 19.9063V19.5354H47.7702C48.1998 19.5354 48.5633 19.6007 48.8606 19.7315C49.1581 19.8622 49.3839 20.0526 49.5381 20.3027C49.695 20.5528 49.7735 20.8612 49.7735 21.2278C49.7735 21.5831 49.6923 21.8829 49.5298 22.1273C49.3701 22.3718 49.1443 22.5579 48.8524 22.6858C48.5633 22.8109 48.2232 22.8748 47.8322 22.8776L46.403 22.8905V25.3119L47.0763 25.3673V25.7424H45.2341ZM49.2779 25.7424L47.985 22.6602L48.4807 22.6559L49.6289 25.3289L50.1205 25.363V25.7424H49.2779ZM46.403 22.4641H47.7206C48.2576 22.4641 48.6514 22.3504 48.902 22.1231C49.1525 21.8957 49.2779 21.5959 49.2779 21.2235C49.2779 20.8229 49.1525 20.5131 48.902 20.2942C48.6514 20.0725 48.2741 19.9617 47.7702 19.9617H46.403V22.4641ZM50.9094 25.7382V25.3673L51.5826 25.3119V19.9617L50.9094 19.9063V19.5311H51.5826H53.3175C53.9426 19.5311 54.43 19.6675 54.7797 19.9404C55.1294 20.2104 55.3043 20.6182 55.3043 21.1639C55.3043 21.4879 55.2148 21.7692 55.0358 22.008C54.8596 22.2438 54.6158 22.403 54.3047 22.4854C54.5525 22.5281 54.77 22.6219 54.9573 22.7668C55.1473 22.9118 55.2946 23.0922 55.3993 23.3082C55.5066 23.5214 55.5603 23.7544 55.5603 24.0074C55.5603 24.5644 55.3855 24.9922 55.0358 25.2906C54.6888 25.589 54.2248 25.7382 53.6438 25.7382H50.9094ZM52.0784 25.3119H53.6438C54.0871 25.3119 54.4341 25.1982 54.6847 24.9708C54.938 24.7435 55.0647 24.4252 55.0647 24.0159C55.0647 23.7687 55.0137 23.5498 54.9119 23.3594C54.81 23.1661 54.6585 23.0155 54.4575 22.9075C54.2565 22.7995 54.0114 22.7455 53.7223 22.7455H52.0784V25.3119ZM52.0784 22.3149H53.462C53.8916 22.3149 54.2221 22.2154 54.4534 22.0165C54.6875 21.8176 54.8045 21.5276 54.8045 21.1468C54.8045 20.7518 54.6778 20.4562 54.4244 20.2601C54.1738 20.0611 53.8049 19.9617 53.3175 19.9617H52.0784V22.3149ZM56.2047 25.7382V25.3673L56.878 25.3119V19.9617L56.2047 19.9063V19.5311H60.5252V20.891H60.1039L60.0626 19.9531H57.3737V22.3021H59.7982V22.7285H57.3737V25.3247H60.1907L60.2319 24.3783H60.6492V25.7382H56.2047ZM61.5248 25.7424V25.3673L62.1981 25.3119V19.9617L61.5248 19.9063V19.5354H64.0609C64.4905 19.5354 64.854 19.6007 65.1514 19.7315C65.4488 19.8622 65.6746 20.0526 65.8288 20.3027C65.9856 20.5528 66.0644 20.8612 66.0644 21.2278C66.0644 21.5831 65.983 21.8829 65.8205 22.1273C65.6608 22.3718 65.435 22.5579 65.1431 22.6858C64.854 22.8109 64.5139 22.8748 64.1229 22.8776L62.6937 22.8905V25.3119L63.367 25.3673V25.7424H61.5248ZM65.5686 25.7424L64.2757 22.6602L64.7714 22.6559L65.9197 25.3289L66.4112 25.363V25.7424H65.5686ZM62.6937 22.4641H64.0114C64.5483 22.4641 64.9421 22.3504 65.1927 22.1231C65.4433 21.8957 65.5686 21.5959 65.5686 21.2235C65.5686 20.8229 65.4433 20.5131 65.1927 20.2942C64.9421 20.0725 64.5648 19.9617 64.0609 19.9617H62.6937V22.4641Z" fill="#EBEBEB"/>
</svg>
