<svg width="100%" height="100%" viewBox="0 0 105 45" fill="none" xmlns="http://www.w3.org/2000/svg">
<circle cx="22.5" cy="22.5" r="21.5" fill="#EBEBEB" stroke="#6B2728" stroke-width="2"/>
<path d="M12.3472 36C12.1792 36 12.0952 35.832 12.0952 35.496C12.0952 35.16 12.1792 34.992 12.3472 34.992H12.9232C14.0272 34.992 14.8072 34.824 15.2632 34.488C15.7432 34.152 15.9832 33.564 15.9832 32.724V13.14C15.9832 12.3 15.7312 11.712 15.2272 11.376C14.7472 11.04 13.9792 10.872 12.9232 10.872H12.3472C12.1792 10.872 12.0952 10.704 12.0952 10.368V10.188C12.1192 10.044 12.1792 9.96 12.2752 9.936C12.3952 9.888 12.5632 9.864 12.7792 9.864L18.6472 9.828C20.9752 9.828 22.6792 9.84 23.7592 9.864C26.2552 9.912 28.3192 10.488 29.9512 11.592C31.5832 12.696 32.3992 14.172 32.3992 16.02C32.3992 17.46 31.8592 18.648 30.7792 19.584C29.6992 20.52 28.3072 21.24 26.6032 21.744C26.3152 21.816 26.1712 21.912 26.1712 22.032C26.1712 22.128 26.3152 22.212 26.6032 22.284C28.6912 22.812 30.4192 23.616 31.7872 24.696C33.1792 25.776 33.8752 27.144 33.8752 28.8C33.8752 30.288 33.4312 31.584 32.5432 32.688C31.6792 33.768 30.5152 34.596 29.0512 35.172C27.5872 35.724 25.9672 36 24.1912 36H12.3472ZM18.8992 20.772C18.8992 21.012 18.9592 21.204 19.0792 21.348C19.2232 21.468 19.4152 21.528 19.6552 21.528H19.8352C23.3152 21.528 25.7152 21.024 27.0352 20.016C28.3792 19.008 29.0512 17.628 29.0512 15.876C29.0512 14.388 28.4152 13.188 27.1432 12.276C25.8952 11.34 24.1072 10.872 21.7792 10.872C20.7472 10.872 20.0032 11.052 19.5472 11.412C19.1152 11.748 18.8992 12.324 18.8992 13.14V20.772ZM22.0672 34.992C24.4912 34.992 26.4952 34.476 28.0792 33.444C29.6872 32.388 30.4912 30.828 30.4912 28.764C30.4912 24.636 26.9392 22.572 19.8352 22.572H19.6552C19.4152 22.572 19.2232 22.644 19.0792 22.788C18.9592 22.908 18.8992 23.088 18.8992 23.328V32.724C18.8992 33.588 19.1392 34.188 19.6192 34.524C20.0992 34.836 20.8792 34.992 21.9592 34.992H22.0672Z" fill="#6B2728"/>
<path  d="M50.4824 20V19.4478L51.5171 19.3652V11.3989L50.4824 11.3164V10.7578H51.5171H54.1831C55.1437 10.7578 55.8927 10.9609 56.4302 11.3672C56.9676 11.7692 57.2363 12.3765 57.2363 13.189C57.2363 13.6714 57.0988 14.0903 56.8237 14.4458C56.5529 14.797 56.1784 15.034 55.7002 15.1567C56.0811 15.2202 56.4154 15.3599 56.7031 15.5757C56.9951 15.7915 57.2215 16.0602 57.3823 16.3818C57.5474 16.6992 57.6299 17.0462 57.6299 17.4229C57.6299 18.2523 57.3612 18.8892 56.8237 19.3335C56.2905 19.7778 55.5775 20 54.6846 20H50.4824ZM52.2788 19.3652H54.6846C55.3659 19.3652 55.8991 19.196 56.2842 18.8574C56.6735 18.5189 56.8682 18.0449 56.8682 17.4355C56.8682 17.0674 56.7899 16.7415 56.6333 16.458C56.4767 16.1702 56.244 15.946 55.9351 15.7852C55.6261 15.6243 55.2495 15.5439 54.8052 15.5439H52.2788V19.3652ZM52.2788 14.9028H54.4053C55.0654 14.9028 55.5732 14.7547 55.9287 14.4585C56.2884 14.1623 56.4683 13.7306 56.4683 13.1636C56.4683 12.5754 56.2736 12.1353 55.8843 11.8433C55.4992 11.547 54.9321 11.3989 54.1831 11.3989H52.2788V14.9028ZM58.6201 20V19.4478L59.6548 19.3652V11.3989L58.6201 11.3164V10.7578H65.2598V12.7827H64.6123L64.5488 11.3862H60.4165V14.8838H64.1426V15.5186H60.4165V19.3843H64.7456L64.8091 17.9751H65.4502V20H58.6201ZM70.103 20.1333C69.5741 20.1333 69.0451 20.0529 68.5161 19.8921C67.9914 19.7313 67.4836 19.4816 66.9927 19.1431V17.353H67.6274L67.7227 18.7939C68.0951 19.0267 68.4823 19.2002 68.8843 19.3145C69.2863 19.4287 69.6925 19.4858 70.103 19.4858C70.5897 19.4858 71.0129 19.4118 71.3726 19.2637C71.7365 19.1113 72.0179 18.9019 72.2168 18.6353C72.4199 18.3644 72.5215 18.0534 72.5215 17.7021C72.5215 17.3636 72.439 17.0674 72.2739 16.8135C72.1131 16.5553 71.8486 16.3289 71.4805 16.1343C71.1165 15.9396 70.6214 15.7619 69.9951 15.6011C69.3223 15.4276 68.7721 15.2244 68.3447 14.9917C67.9215 14.759 67.6084 14.4797 67.4053 14.1538C67.2064 13.8237 67.1069 13.4323 67.1069 12.9795C67.1069 12.5182 67.2297 12.112 67.4751 11.7607C67.7205 11.4053 68.0633 11.1281 68.5034 10.9292C68.9478 10.7261 69.464 10.6245 70.0522 10.6245C70.6743 10.6245 71.2287 10.7176 71.7153 10.9038C72.2062 11.09 72.6209 11.3291 72.9595 11.6211V13.2715H72.3311L72.2358 11.9639C71.9692 11.748 71.654 11.5788 71.29 11.4561C70.9261 11.3333 70.5135 11.272 70.0522 11.272C69.5994 11.272 69.2101 11.3481 68.8843 11.5005C68.5584 11.6486 68.3066 11.8496 68.1289 12.1035C67.9554 12.3574 67.8687 12.6452 67.8687 12.9668C67.8687 13.2757 67.9385 13.5487 68.0781 13.7856C68.2178 14.0184 68.459 14.2257 68.8018 14.4077C69.1445 14.5854 69.6248 14.7568 70.2427 14.9219C71.2456 15.18 72.0031 15.5291 72.5151 15.9692C73.0272 16.4051 73.2832 16.9785 73.2832 17.6895C73.2832 18.1803 73.1478 18.6099 72.877 18.978C72.6104 19.342 72.238 19.6255 71.7598 19.8286C71.2816 20.0317 70.7293 20.1333 70.103 20.1333ZM76.7109 20V19.4478L77.7456 19.3652V11.3799H75.1494L75.0669 12.7891H74.4448V10.7578H81.8018V12.7891H81.186L81.0972 11.3799H78.5073V19.3652L79.542 19.4478V20H76.7109ZM50.4824 37V36.4478L51.5171 36.3652V28.3989L50.4824 28.3164V27.7578H51.5171H54.1831C55.1437 27.7578 55.8927 27.9609 56.4302 28.3672C56.9676 28.7692 57.2363 29.3765 57.2363 30.189C57.2363 30.6714 57.0988 31.0903 56.8237 31.4458C56.5529 31.797 56.1784 32.034 55.7002 32.1567C56.0811 32.2202 56.4154 32.3599 56.7031 32.5757C56.9951 32.7915 57.2215 33.0602 57.3823 33.3818C57.5474 33.6992 57.6299 34.0462 57.6299 34.4229C57.6299 35.2523 57.3612 35.8892 56.8237 36.3335C56.2905 36.7778 55.5775 37 54.6846 37H50.4824ZM52.2788 36.3652H54.6846C55.3659 36.3652 55.8991 36.196 56.2842 35.8574C56.6735 35.5189 56.8682 35.0449 56.8682 34.4355C56.8682 34.0674 56.7899 33.7415 56.6333 33.458C56.4767 33.1702 56.244 32.946 55.9351 32.7852C55.6261 32.6243 55.2495 32.5439 54.8052 32.5439H52.2788V36.3652ZM52.2788 31.9028H54.4053C55.0654 31.9028 55.5732 31.7547 55.9287 31.4585C56.2884 31.1623 56.4683 30.7306 56.4683 30.1636C56.4683 29.5754 56.2736 29.1353 55.8843 28.8433C55.4992 28.547 54.9321 28.3989 54.1831 28.3989H52.2788V31.9028ZM58.5312 37V36.4478L59.2104 36.4033L62.4922 27.7578H63.2158L66.4722 36.4033L67.1514 36.4478V37H64.8726V36.4478L65.6851 36.3906L64.917 34.3022H60.772L59.9976 36.3906L60.8101 36.4478V37H58.5312ZM61.0195 33.6357H64.6694L63 29.0972L62.873 28.7227H62.835L62.7017 29.0972L61.0195 33.6357ZM68.1416 37.0063V36.4478L69.1763 36.3652V28.3989L68.1416 28.3164V27.7642H72.0391C72.6992 27.7642 73.2578 27.8615 73.7148 28.0562C74.1719 28.2508 74.5189 28.5343 74.7559 28.9067C74.9971 29.2791 75.1177 29.7383 75.1177 30.2842C75.1177 30.8132 74.9928 31.2596 74.7432 31.6235C74.4977 31.9875 74.1507 32.2646 73.7021 32.4551C73.2578 32.6413 72.7352 32.7365 72.1343 32.7407L69.938 32.7598V36.3652L70.9727 36.4478V37.0063H68.1416ZM74.356 37.0063L72.3691 32.417L73.1309 32.4106L74.8955 36.3906L75.6509 36.4414V37.0063H74.356ZM69.938 32.125H71.9629C72.7881 32.125 73.3932 31.9557 73.7783 31.6172C74.1634 31.2786 74.356 30.8322 74.356 30.2778C74.356 29.6812 74.1634 29.2199 73.7783 28.894C73.3932 28.564 72.8135 28.3989 72.0391 28.3989H69.938V32.125ZM76.8633 37V36.4478L77.8979 36.3652V28.3989L76.8633 28.3164V27.7578H77.8979H80.564C81.5246 27.7578 82.2736 27.9609 82.811 28.3672C83.3485 28.7692 83.6172 29.3765 83.6172 30.189C83.6172 30.6714 83.4797 31.0903 83.2046 31.4458C82.9338 31.797 82.5592 32.034 82.0811 32.1567C82.4619 32.2202 82.7962 32.3599 83.084 32.5757C83.376 32.7915 83.6024 33.0602 83.7632 33.3818C83.9282 33.6992 84.0107 34.0462 84.0107 34.4229C84.0107 35.2523 83.742 35.8892 83.2046 36.3335C82.6714 36.7778 81.9583 37 81.0654 37H76.8633ZM78.6597 36.3652H81.0654C81.7467 36.3652 82.2799 36.196 82.665 35.8574C83.0544 35.5189 83.249 35.0449 83.249 34.4355C83.249 34.0674 83.1707 33.7415 83.0142 33.458C82.8576 33.1702 82.6248 32.946 82.3159 32.7852C82.007 32.6243 81.6304 32.5439 81.186 32.5439H78.6597V36.3652ZM78.6597 31.9028H80.7861C81.4463 31.9028 81.9541 31.7547 82.3096 31.4585C82.6693 31.1623 82.8491 30.7306 82.8491 30.1636C82.8491 29.5754 82.6545 29.1353 82.2651 28.8433C81.88 28.547 81.313 28.3989 80.564 28.3989H78.6597V31.9028ZM85.001 37V36.4478L86.0356 36.3652V28.3989L85.001 28.3164V27.7578H91.6406V29.7827H90.9932L90.9297 28.3862H86.7974V31.8838H90.5234V32.5186H86.7974V36.3843H91.1265L91.1899 34.9751H91.8311V37H85.001ZM93.1768 37.0063V36.4478L94.2114 36.3652V28.3989L93.1768 28.3164V27.7642H97.0742C97.7344 27.7642 98.293 27.8615 98.75 28.0562C99.207 28.2508 99.554 28.5343 99.791 28.9067C100.032 29.2791 100.153 29.7383 100.153 30.2842C100.153 30.8132 100.028 31.2596 99.7783 31.6235C99.5329 31.9875 99.1859 32.2646 98.7373 32.4551C98.293 32.6413 97.7703 32.7365 97.1694 32.7407L94.9731 32.7598V36.3652L96.0078 36.4478V37.0063H93.1768ZM99.3911 37.0063L97.4043 32.417L98.166 32.4106L99.9307 36.3906L100.686 36.4414V37.0063H99.3911ZM94.9731 32.125H96.998C97.8232 32.125 98.4284 31.9557 98.8135 31.6172C99.1986 31.2786 99.3911 30.8322 99.3911 30.2778C99.3911 29.6812 99.1986 29.2199 98.8135 28.894C98.4284 28.564 97.8486 28.3989 97.0742 28.3989H94.9731V32.125Z" fill="#EBEBEB"
stroke="#EBEBEB" stroke-width="0.3"/>
</svg>
